<svg width="140" height="100" viewBox="0 0 1078 304" fill="none" xmlns="http://www.w3.org/2000/svg">
<path d="M966.51 111.4C978.425 111.604 987.014 114.806 992.276 121.007C994.163 123.345 995.404 125.886 996 128.631C996.397 131.375 996.149 133.815 995.255 135.95C993.468 139.101 990.836 140.727 987.361 140.829C983.787 140.727 981.156 139.101 979.468 135.95C978.673 134.628 978.078 131.731 977.68 127.258C977.581 125.53 977.383 124.056 977.085 122.836C975.893 118.567 972.517 116.178 966.957 115.67C966.361 115.67 965.815 115.67 965.319 115.67C960.652 115.975 957.177 118.008 954.893 121.769C954.099 123.192 953.702 124.615 953.702 126.038C953.702 130.613 956.929 134.628 963.383 138.084C964.673 138.694 966.659 139.609 969.34 140.829C971.624 141.947 973.312 142.76 974.404 143.269C985.028 148.758 991.929 154.044 995.106 159.126C996.695 161.871 997.638 164.667 997.936 167.513C998.432 174.527 996.049 180.626 990.787 185.81C986.716 189.775 981.851 192.214 976.191 193.129C972.418 193.536 967.9 193.485 962.638 192.977C951.617 191.655 943.673 187.945 938.808 181.846C938.212 181.033 937.716 180.27 937.319 179.559C934.936 175.493 934.389 171.477 935.68 167.513C935.78 167.005 935.929 166.547 936.127 166.14C937.914 162.989 940.546 161.414 944.021 161.414C947.496 161.515 950.127 163.091 951.914 166.14C952.51 167.36 953.156 170.156 953.851 174.527C954.148 176.458 954.546 178.085 955.042 179.406C957.127 184.286 960.702 187.386 965.766 188.707C967.156 189.012 968.446 189.165 969.638 189.165C973.609 189.165 976.985 187.589 979.766 184.438C981.156 182.71 981.95 180.931 982.149 179.101C982.347 174.73 979.17 170.613 972.617 166.75C971.227 165.937 968.943 164.717 965.766 163.091C963.978 162.176 962.687 161.464 961.893 160.956C953.751 156.687 948.787 153.891 946.999 152.57C940.843 147.792 937.716 141.998 937.616 135.187C937.616 126.445 941.489 119.888 949.234 115.517C953.801 112.874 959.163 111.502 965.319 111.4C965.517 111.4 965.716 111.4 965.914 111.4C966.212 111.4 966.411 111.4 966.51 111.4Z" fill="#161616"/>
<path d="M874.779 80C875.184 80.1026 875.537 80.2052 875.841 80.3078C876.548 80.8208 876.902 81.4876 876.902 82.3084V153.253L898.281 133.093C907.378 124.475 909.046 119.345 903.284 117.704C902.071 117.293 900.555 117.088 898.736 117.088C897.421 116.985 896.714 116.267 896.613 114.934C896.714 113.702 897.421 112.984 898.736 112.779H929.06C930.374 112.984 931.082 113.702 931.183 114.934C931.082 116.165 930.475 116.883 929.363 117.088C929.161 117.088 929.009 117.088 928.908 117.088C923.551 117.293 915.464 122.628 904.649 133.093L892.974 144.173L909.652 167.103C916.728 176.952 921.681 183.005 924.511 185.262C926.937 187.109 929.212 188.032 931.334 188.032C932.547 188.238 933.255 188.956 933.457 190.187C933.255 191.521 932.547 192.239 931.334 192.341H927.847H919.659H910.865C904.396 192.239 898.887 189.161 894.338 183.108L876.902 159.101V167.257C877.104 180.902 880.187 187.827 886.151 188.032C887.465 188.238 888.173 188.956 888.274 190.187C888.071 191.521 887.364 192.239 886.151 192.341H846.123C844.809 192.136 844.101 191.418 844 190.187C844.202 188.853 844.91 188.135 846.123 188.032C852.188 187.725 855.271 180.748 855.372 167.103L855.22 125.09C855.22 121.807 855.22 119.55 855.22 118.319C854.512 107.444 851.682 101.75 846.729 101.237C846.628 101.237 846.477 101.237 846.274 101.237C846.072 101.237 845.87 101.237 845.668 101.237C844.657 100.929 844.101 100.211 844 99.0826C844.101 98.0567 844.657 97.3898 845.668 97.082C845.769 96.9795 846.022 96.9282 846.426 96.9282C846.628 96.9282 846.83 96.9282 847.032 96.9282C851.884 96.5178 857.798 93.8503 864.772 88.9257C868.815 86.1557 871.545 83.5908 872.96 81.2311C873.364 80.7182 873.768 80.3591 874.173 80.1539C874.375 80.1539 874.577 80.1026 874.779 80Z" fill="#161616"/>
<path d="M802.718 112.677C803.425 112.37 804.133 112.318 804.841 112.524C805.548 113.036 805.902 113.703 805.902 114.524V120.988C805.902 123.86 806.256 125.297 806.963 125.297C807.368 125.194 807.873 124.835 808.48 124.219C808.783 123.706 809.086 123.245 809.389 122.834C814.039 116.781 819.7 113.447 826.371 112.831C827.078 112.831 827.736 112.831 828.342 112.831C832.992 112.831 836.883 114.37 840.017 117.448C841.129 118.679 841.988 119.91 842.594 121.141C843.504 123.912 843.403 126.528 842.291 128.99C840.674 132.376 837.945 134.068 834.104 134.068C833.699 134.068 833.346 134.068 833.042 134.068C831.122 133.761 829.454 133.094 828.039 132.068C827.533 131.555 826.27 130.119 824.248 127.759C823.136 126.425 821.923 125.399 820.609 124.681C816.97 122.732 813.584 124.014 810.451 128.528C808.025 132.324 806.559 137.044 806.054 142.686C806.054 142.994 806.003 145.097 805.902 148.996V167.155C806.104 180.8 809.187 187.726 815.151 187.931C816.465 188.136 817.172 188.854 817.274 190.085C817.071 191.419 816.364 192.137 815.151 192.24H775.123C773.809 192.035 773.101 191.316 773 190.085C773.202 188.751 773.91 188.033 775.123 187.931C781.188 187.623 784.271 180.646 784.372 167.001L784.22 157.306C784.22 154.023 784.22 151.766 784.22 150.535C783.512 139.66 780.682 133.966 775.729 133.453C775.628 133.453 775.476 133.453 775.274 133.453C774.971 133.453 774.769 133.453 774.668 133.453C773.657 133.145 773.101 132.427 773 131.298C773.101 130.272 773.657 129.606 774.668 129.298C774.769 129.195 775.022 129.144 775.426 129.144C775.729 129.144 775.931 129.144 776.032 129.144C780.884 128.733 786.798 126.066 793.772 121.141C797.108 118.884 799.584 116.73 801.202 114.678C801.303 114.473 801.454 114.216 801.657 113.909C802.162 113.293 802.516 112.883 802.718 112.677Z" fill="#161616"/>
<path fill-rule="evenodd" clip-rule="evenodd" d="M711.64 121.527C713.797 112.934 724.382 110.098 730.546 116.461C733.672 119.687 738.419 120.618 742.456 118.804C750.44 115.216 759.282 121.883 758.274 130.686C757.762 135.159 760.04 139.509 763.986 141.6C771.765 145.72 772.232 156.847 764.805 161.482C761.045 163.829 759.132 168.316 760.012 172.743C761.745 181.458 753.472 188.698 745.214 185.654C741.037 184.114 736.382 185.361 733.534 188.784C727.905 195.549 717.12 193.415 714.263 185.001C712.812 180.727 708.911 177.798 704.482 177.646C695.732 177.345 690.573 167.476 695.249 160.018C697.622 156.234 697.42 151.328 694.74 147.71C689.465 140.59 693.789 130.396 702.498 129.511C706.901 129.063 710.546 125.883 711.64 121.527ZM725.386 124.447C723.614 122.617 720.676 123.404 720.056 125.875C718.362 132.622 712.673 137.647 705.706 138.355C703.444 138.585 701.891 141.442 703.586 143.73C707.708 149.294 708.044 156.86 704.353 162.747C702.922 165.029 704.597 167.936 707.036 168.02C714.015 168.26 720.043 172.858 722.271 179.418C723.166 182.054 726.256 182.404 727.739 180.622C732.211 175.248 739.546 173.283 746.105 175.701C748.281 176.503 750.782 174.655 750.239 171.924C748.889 165.129 751.81 158.133 757.734 154.436C759.804 153.144 759.801 149.789 757.421 148.528C751.281 145.275 747.789 138.555 748.577 131.675C748.9 128.846 746.128 127.148 744.054 128.08C737.666 130.95 730.227 129.443 725.386 124.447Z" fill="#2CBE9D"/>
<path d="M707.447 88.4004C708.283 88.4004 708.91 88.4676 709.328 88.6019C710.303 89.2738 710.861 90.1472 711 91.2221C710.861 92.297 710.373 93.1032 709.537 93.6407C709.119 93.7751 708.213 93.9094 706.82 94.0438C701.386 94.9844 695.674 101.904 689.683 114.803C688.15 118.297 686.618 121.925 685.085 125.687L658.125 189.579C657.289 191.325 655.826 192.266 653.736 192.4C651.786 192.266 650.392 191.393 649.556 189.78L625.104 131.935L600.652 189.78C599.817 191.393 598.354 192.266 596.264 192.4C594.313 192.266 592.92 191.393 592.084 189.78L567.423 131.532C565.89 127.77 564.358 124.142 562.825 120.648C556.416 105.599 550.704 96.9999 545.688 94.85C544.852 94.4469 544.085 94.1782 543.389 94.0438C543.249 94.0438 542.901 94.0438 542.344 94.0438C541.508 93.9094 540.951 93.7751 540.672 93.6407C539.697 93.1032 539.139 92.297 539 91.2221C539.139 90.1472 539.627 89.341 540.463 88.8035C541.16 88.5348 542.274 88.4004 543.807 88.4004H594.592C594.731 88.4004 595.01 88.4004 595.428 88.4004C595.846 88.4004 596.124 88.4004 596.264 88.4004C597.378 88.5348 598.214 88.7363 598.772 89.0051C599.329 89.6769 599.677 90.4159 599.817 91.2221C599.677 92.297 599.12 93.1032 598.145 93.6407C597.587 93.9094 596.751 94.0438 595.637 94.0438C588.531 94.4469 586.65 99.2841 589.994 108.555C590.133 108.959 590.203 109.227 590.203 109.362L608.176 151.284C608.873 153.031 609.778 152.762 610.893 150.478C611.032 150.209 611.102 150.008 611.102 149.873L621.97 124.478L633.464 96.664C634.439 94.7828 635.972 93.7751 638.062 93.6407C640.152 93.9094 641.545 94.85 642.242 96.4624L665.231 150.679C666.206 152.829 667.321 152.561 668.575 149.873C668.714 149.605 668.784 149.47 668.784 149.47L681.323 119.842C681.602 118.902 682.159 117.558 682.995 115.811C683.692 113.93 684.249 112.586 684.667 111.78C688.429 102.509 688.29 96.8655 684.249 94.85C683.134 94.4469 681.811 94.1782 680.278 94.0438C679.024 93.9094 678.258 93.8423 677.979 93.8423C676.865 93.1704 676.307 92.297 676.307 91.2221C676.447 89.4753 677.422 88.5348 679.233 88.4004H706.611C706.75 88.4004 707.029 88.4004 707.447 88.4004Z" fill="#161616"/>
<path d="M482.755 112.674C485.81 112.37 488.763 112.319 491.614 112.522C496.909 113.131 501.287 114.451 504.749 116.481C511.775 120.44 515.746 125.668 516.663 132.165C516.765 132.977 516.816 133.738 516.816 134.449C516.306 142.163 511.877 147.544 503.527 150.589C501.491 151.299 498.334 152.111 494.058 153.025C489.883 154.04 486.981 154.852 485.352 155.461C480.871 157.187 477.867 159.42 476.34 162.161C474.813 165.206 475.729 168.506 479.089 172.058C484.384 177.946 491.105 180.738 499.251 180.433C506.175 180.23 511.47 177.845 515.135 173.277C515.746 172.566 516.357 172.16 516.968 172.058C518.292 172.261 519.005 172.972 519.107 174.19C519.005 174.698 518.598 175.51 517.885 176.626C510.35 187.488 500.32 192.919 487.795 192.919C480.769 192.817 474.049 190.939 467.634 187.285C457.655 181.6 451.647 172.769 449.611 160.791C448.185 151.959 449.255 143.331 452.818 134.905C457.197 124.957 464.274 118.207 474.049 114.654C476.9 113.639 479.802 112.979 482.755 112.674ZM493.141 117.242C490.392 116.532 487.541 116.684 484.588 117.699C478.275 119.933 473.998 125.211 471.758 133.535C470.841 136.783 470.332 140.235 470.231 143.889C470.231 148.66 470.689 153.076 471.605 157.136C472.216 158.76 473.031 158.963 474.049 157.745C476.086 155.106 478.835 152.924 482.297 151.198C495.738 144.498 501.949 136.073 500.931 125.922C499.913 121.354 497.316 118.461 493.141 117.242Z" fill="#161616"/>
<path d="M385.173 114.488C385.988 113.473 386.955 113.168 388.075 113.574C388.788 114.082 389.144 114.742 389.144 115.554C389.144 116.467 389.144 117.026 389.144 117.229C389.45 118.954 390.061 119.767 390.977 119.665C391.384 119.564 391.893 119.361 392.504 119.056C399.428 115.605 405.182 113.879 409.764 113.879C430.332 114.488 440.769 127.735 441.075 153.62C441.075 168.035 437.206 178.846 429.467 186.053C424.07 191.027 417.401 193.514 409.458 193.514C403.756 193.514 398.41 192.195 393.421 189.555C393.217 189.555 392.963 189.454 392.657 189.251C391.842 188.845 391.282 188.54 390.977 188.337C390.061 188.134 389.5 188.642 389.297 189.86C389.297 190.164 389.297 190.368 389.297 190.469C389.195 190.875 389.195 191.535 389.297 192.448C389.297 193.159 389.246 193.616 389.144 193.819V199.605C389.348 213.207 392.453 220.059 398.461 220.161C399.785 220.364 400.498 221.075 400.599 222.293C400.396 223.612 399.683 224.323 398.461 224.424H358.138C356.815 224.323 356.102 223.612 356 222.293C356.204 221.075 356.916 220.364 358.138 220.161C364.248 219.856 367.353 212.954 367.455 199.453L367.303 157.884C367.303 154.636 367.303 152.402 367.303 151.184C366.59 140.424 363.739 134.79 358.749 134.283C358.647 134.283 358.495 134.283 358.291 134.283C357.986 134.283 357.782 134.283 357.68 134.283C356.662 133.978 356.102 133.268 356 132.151C356.102 131.136 356.662 130.476 357.68 130.171C357.782 130.07 358.036 130.019 358.444 130.019C358.647 130.019 358.851 130.019 359.055 130.019C363.942 129.613 369.899 127.025 376.925 122.254C380.998 119.411 383.747 116.823 385.173 114.488ZM400.905 121.645C399.174 121.746 397.646 122 396.323 122.406C392.657 123.726 390.417 125.857 389.602 128.801C389.399 129.816 389.246 131.897 389.144 135.044V176.765C389.246 177.983 389.297 178.846 389.297 179.354C390.01 183.109 393.37 185.749 399.378 187.271C400.09 187.474 400.752 187.627 401.363 187.728C410.935 189.149 416.637 182.247 418.47 167.02C418.877 163.163 419.081 158.696 419.081 153.62C419.081 142.86 416.942 134.435 412.666 128.344C409.509 123.979 405.589 121.746 400.905 121.645Z" fill="#161616"/>
<path d="M307.011 113.702C310.066 113.499 312.917 113.499 315.564 113.702C327.172 114.92 335.064 119.843 339.239 128.472C340.97 132.126 341.835 136.136 341.835 140.501V167.452C341.835 176.791 343.617 182.07 347.181 183.288C348.708 183.694 350.185 183.237 351.61 181.917L351.916 181.613C352.221 181.308 352.425 181.105 352.527 181.004C352.934 180.801 353.291 180.699 353.596 180.699C354.92 180.902 355.632 181.613 355.734 182.831C355.734 183.44 355.48 184.049 354.971 184.658C351.814 189.125 347.588 191.815 342.293 192.728C341.275 192.931 340.308 193.033 339.391 193.033C331.653 192.931 326.103 189.937 322.743 184.049C322.03 182.73 321.216 182.425 320.299 183.136C320.197 183.237 320.096 183.339 319.994 183.44C314.19 189.429 306.807 192.779 297.847 193.49C288.988 194.099 282.522 191.764 278.449 186.485C277.329 184.963 276.514 183.389 276.005 181.765C275.394 179.836 275.038 177.553 274.936 174.913C274.732 166.894 278.755 160.6 287.002 156.032C288.733 155.119 294.283 152.733 303.651 148.876C308.233 147.048 311.848 145.272 314.495 143.546C317.957 140.704 319.688 137.506 319.688 133.954C318.568 123.193 314.444 117.763 307.316 117.661C302.327 117.661 299.17 119.691 297.847 123.752C297.541 124.767 297.338 125.782 297.236 126.797C297.134 127.914 297.185 129.589 297.389 131.822C297.49 133.954 297.49 135.476 297.389 136.39C297.287 138.928 296.778 141.009 295.861 142.633C294.13 145.475 291.534 146.947 288.072 147.048C284.304 147.048 281.555 145.374 279.824 142.024C279.62 141.516 279.416 141.009 279.213 140.501C278.907 139.08 278.856 137.253 279.06 135.019C280.18 127 284.915 121.011 293.265 117.052C297.439 115.123 302.022 114.007 307.011 113.702ZM319.994 144.308C319.281 145.12 318.314 145.983 317.092 146.896C315.564 148.114 313.222 149.738 310.066 151.769C304.262 155.423 300.545 158.519 298.916 161.057C297.389 163.493 296.523 166.285 296.319 169.432C296.319 171.766 296.523 173.847 296.93 175.675C298.152 179.633 300.901 182.273 305.178 183.592C310.066 185.014 313.986 183.897 316.939 180.243C318.975 177.603 319.994 174 319.994 169.432V144.308Z" fill="#161616"/>
<path d="M204.173 82.488C204.886 81.4729 205.853 81.1684 207.075 81.5744C207.788 82.082 208.144 82.7418 208.144 83.5539V117.509C208.246 120.453 208.348 122.28 208.45 122.991C208.755 123.6 209.111 123.955 209.519 124.057C209.824 123.955 211.148 123.143 213.49 121.621C218.479 118.677 223.418 116.545 228.305 115.225C233.804 113.906 238.895 113.804 243.579 114.921C253.762 118.068 258.904 126.595 259.006 140.502V167.453C259.108 181.055 262.213 187.958 268.323 188.161C269.545 188.364 270.257 189.075 270.461 190.293C270.257 191.612 269.545 192.323 268.323 192.424H228C226.676 192.221 225.963 191.511 225.862 190.293C225.963 188.973 226.676 188.262 228 188.161C234.008 188.059 237.062 181.258 237.164 167.757V140.502C237.164 133.396 234.415 128.472 228.916 125.732C224.029 123.295 219.345 123.498 214.865 126.341C211.606 128.574 209.519 131.873 208.602 136.238C208.297 137.761 208.144 140.603 208.144 144.765V167.605C208.348 181.106 211.453 187.958 217.461 188.161C218.785 188.364 219.498 189.075 219.599 190.293C219.396 191.612 218.683 192.323 217.461 192.424H177.138C175.815 192.221 175.102 191.511 175 190.293C175.204 188.973 175.916 188.262 177.138 188.161C183.248 187.856 186.354 180.954 186.455 167.453L186.303 125.884C186.303 122.636 186.303 120.402 186.303 119.184C185.59 108.424 182.739 102.79 177.749 102.283C177.647 102.283 177.495 102.283 177.291 102.283C177.087 102.283 176.884 102.283 176.68 102.283C175.662 101.978 175.102 101.268 175 100.151C175.102 99.1358 175.662 98.476 176.68 98.1715C176.782 98.07 177.037 98.0192 177.444 98.0192C177.647 98.0192 177.851 98.0192 178.055 98.0192C182.942 97.6132 188.899 94.9739 195.925 90.1013C199.998 87.3605 202.747 84.8228 204.173 82.488Z" fill="#161616"/>
<path d="M124.014 81C140.657 81.2752 152.654 85.6097 160.005 94.0035C162.64 97.1684 164.374 100.608 165.206 104.324C165.761 108.039 165.414 111.342 164.166 114.231C161.669 118.497 157.994 120.699 153.14 120.836C148.147 120.699 144.471 118.497 142.114 114.231C141.004 112.442 140.172 108.521 139.617 102.466C139.478 100.127 139.201 98.1316 138.785 96.4804C137.121 90.701 132.405 87.4674 124.638 86.7793C123.806 86.7793 123.043 86.7793 122.35 86.7793C115.831 87.1921 110.977 89.9442 107.787 95.0355C106.678 96.962 106.123 98.8884 106.123 100.815C106.123 107.007 110.63 112.442 119.645 117.121C121.448 117.946 124.222 119.185 127.967 120.836C131.157 122.35 133.515 123.451 135.04 124.139C149.88 131.569 159.519 138.725 163.958 145.605C166.177 149.32 167.494 153.104 167.91 156.957C168.604 166.452 165.275 174.708 157.924 181.726C152.238 187.092 145.442 190.395 137.537 191.633C132.266 192.183 125.956 192.115 118.605 191.427C103.21 189.638 92.115 184.615 85.319 176.359C84.4869 175.258 83.7934 174.226 83.2387 173.263C79.91 167.759 79.1472 162.324 80.9502 156.957C81.0889 156.269 81.297 155.65 81.5743 155.099C84.0708 150.834 87.7462 148.701 92.6004 148.701C97.4546 148.838 101.13 150.971 103.626 155.099C104.459 156.751 105.36 160.535 106.331 166.452C106.747 169.066 107.302 171.268 107.995 173.057C110.908 179.662 115.901 183.858 122.974 185.647C124.916 186.06 126.719 186.267 128.383 186.267C133.931 186.267 138.646 184.134 142.53 179.868C144.471 177.529 145.581 175.121 145.858 172.644C146.136 166.727 141.697 161.154 132.544 155.925C130.602 154.824 127.412 153.173 122.974 150.971C120.478 149.733 118.675 148.77 117.565 148.082C106.192 142.302 99.2576 138.518 96.7612 136.729C88.1622 130.262 83.7934 122.419 83.6547 113.199C83.6547 101.365 89.0637 92.4899 99.8817 86.5729C106.262 82.9952 113.751 81.1376 122.35 81C122.627 81 122.905 81 123.182 81C123.598 81 123.876 81 124.014 81Z" fill="#161616"/>
</svg>
